<?xml version="1.0" encoding="UTF-8"?><svg id="White" xmlns="http://www.w3.org/2000/svg" viewBox="0 0 1150 250"><defs><style>.cls-1{fill:#fff;}</style></defs><path class="cls-1" d="m228.54,179.64h-58.76c-2.3,0-5.06-1.66-6.14-3.68l-50.82-95.37c-3-5.62-.23-10.22,6.14-10.22h58.76c2.3,0,5.06,1.66,6.14,3.68l50.82,95.37c3,5.62.23,10.22-6.14,10.22Zm52.51-109.28h-58.78c-2.3,0-5.07,1.66-6.14,3.7l-1.78,3.35c-.95,1.79-.95,4.72,0,6.51l29.39,55.51c3.38,6.38,8.91,6.38,12.29,0l31.17-58.86c2.97-5.61.21-10.21-6.14-10.21Zm250.97,8.01v92.48c0,4.79-3.61,8.4-8.4,8.4h-5.56c-4.79,0-8.4-3.61-8.4-8.4v-92.48c0-4.79,3.61-8.4,8.4-8.4h5.56c4.79,0,8.4,3.61,8.4,8.4Zm276.58,26.07v66.4c0,4.79-3.61,8.4-8.4,8.4h-5.56c-3.86,0-6.95-2.35-8.01-5.76-6.06,4.06-14.49,5.76-26.41,5.76h-17.03c-36.8,0-42.3-20.18-42.3-32.22,0-11.1,2.7-18.83,8.49-24.34,5.79-5.5,14.36-8.62,27.78-10.1l48.62-5.38c.18-.02.33-.05.45-.07,0-.03,0-.05,0-.08,0-6.84-.73-10.48-2.45-12.17-1.97-1.95-6.78-2.89-14.7-2.89h-51.97c-4.79,0-8.4-3.61-8.4-8.4v-5.21c0-4.79,3.61-8.4,8.4-8.4h52.15c27.21,0,39.34,10.63,39.34,34.48Zm-22.37,29.55v-5.17l-46.41,5.19c-16.58,1.77-16.58,5.13-16.58,12.49,0,3.54,0,10.89,19.93,10.89h19.64c18.38,0,23.41-5.03,23.41-23.41Zm121.86-64.03h-18.43c-8.14,0-17.26.77-24.41,5.04-1.25-3.02-4.17-5.04-7.75-5.04h-5.56c-4.79,0-8.4,3.61-8.4,8.4v92.48c0,4.79,3.61,8.4,8.4,8.4h5.56c4.79,0,8.4-3.61,8.4-8.4v-57.01c0-9.8,1.4-15.88,4.29-18.6,2.45-2.31,6.88-3.25,15.3-3.25h22.6c4.79,0,8.4-3.61,8.4-8.4v-5.21c0-4.79-3.61-8.4-8.4-8.4Zm138.6,43.86v21.03c0,12.11-.98,24.49-8.12,33.05-6.54,7.84-16.92,11.34-33.65,11.34h-28.86c-16.73,0-27.11-3.5-33.65-11.34-7.14-8.56-8.12-20.94-8.12-33.05v-21.03c0-20.14,4.11-27.75,8.14-32.54,6.49-7.73,17.18-11.32,33.64-11.32h28.86c16.46,0,27.15,3.6,33.64,11.32,7.17,8.53,8.14,21.24,8.14,32.54Zm-25.67-18.47c-2.21-2.37-7.08-3.38-16.28-3.38h-28.51c-9.2,0-14.07,1.01-16.28,3.38-2.32,2.48-3.31,7.85-3.31,17.95v22.08c0,10.47.98,16.01,3.27,18.5,2.15,2.34,7.03,3.34,16.31,3.34h28.51c9.28,0,14.16-1,16.31-3.34,2.29-2.5,3.27-8.03,3.27-18.5v-22.08c0-10.1-.99-15.47-3.31-17.95Zm-429.84,0c2.21-2.37,7.08-3.38,16.28-3.38h28.51c8.06,0,12.76.77,15.23,2.51,1.57,1.1,3.27,3.22,3.99,10.55.41,4.16,3.88,7.3,8.07,7.3h6.11c2.28,0,4.47-.97,6.01-2.66,1.53-1.69,2.29-3.95,2.07-6.22-2.32-24.11-13.9-33.5-41.31-33.5h-28.86c-16.46,0-27.15,3.6-33.64,11.32-4.02,4.79-8.14,12.4-8.14,32.54v21.03c0,12.11.98,24.49,8.12,33.05,6.54,7.84,16.92,11.34,33.65,11.34h28.86c27.32,0,38.89-9.39,41.28-33.47.23-2.27-.53-4.54-2.06-6.23-1.54-1.7-3.73-2.67-6.02-2.67h-6.1c-4.2,0-7.67,3.14-8.07,7.31-.71,7.29-2.37,9.4-3.89,10.49-2.47,1.77-7.19,2.56-15.32,2.56h-28.51c-9.28,0-14.16-1-16.31-3.34-2.29-2.5-3.27-8.03-3.27-18.5v-22.08c0-10.1.99-15.47,3.31-17.95Zm-113.2-13.88l-.07.13-49.34,92.6c-1.63,3.2-4.64,5.03-8.27,5.03h-8.34c-3.63,0-6.64-1.83-8.27-5.04l-49.41-92.73c-1.33-2.66-1.27-5.53.17-7.86,1.42-2.29,4-3.66,6.93-3.66h6.43c3.63,0,6.64,1.84,8.27,5.04l40.05,75.63,40.05-75.63c1.63-3.21,4.65-5.04,8.28-5.04h6.6c2.91,0,5.39,1.31,6.8,3.58,1.44,2.32,1.48,5.22.12,7.93Z"/></svg>