<?xml version="1.0" encoding="UTF-8"?><svg id="Layer_5" xmlns="http://www.w3.org/2000/svg" xmlns:xlink="http://www.w3.org/1999/xlink" viewBox="0 0 16 16"><defs><style>.cls-1{fill:url(#New_Gradient_Swatch_copy);}</style><linearGradient id="New_Gradient_Swatch_copy" x1="3.49" y1="9.63" x2="14.29" y2="3.4" gradientUnits="userSpaceOnUse"><stop offset="0" stop-color="#05c"/><stop offset="1" stop-color="#1b7fff"/></linearGradient></defs><path class="cls-1" d="m14.79,5.56l-2.84,4.98c-.1.17-.21.3-.32.4-.07-.16-.12-.33-.21-.49l-1.67-2.93-.6-1.05,1.11-1.94c.17-.29.57-.52.89-.52h2.76-.01c.98-.01,1.38.69.89,1.55Zm-6,7.44c.25,0,.45-.04.62-.12s.29-.19.37-.33c.16-.28.14-.67-.11-1.1l-1.67-2.94-2.26-3.98c-.17-.29-.57-.52-.89-.52h-2.76c-.98,0-1.38.7-.89,1.56l3.93,6.91c.17.29.57.52.89.52h2.76Z"/></svg>