<?xml version="1.0" encoding="UTF-8"?><svg id="Layer_4" xmlns="http://www.w3.org/2000/svg" xmlns:xlink="http://www.w3.org/1999/xlink" viewBox="0 0 1600 600"><defs><style>.cls-1{fill:url(#linear-gradient);}.cls-2{letter-spacing:-.02em;}.cls-3{letter-spacing:-.02em;}.cls-4{fill:url(#linear-gradient-2);}.cls-5{font-family:CirceRounded-Bold, 'Circe Rounded';font-size:320px;font-weight:700;}</style><linearGradient id="linear-gradient" x1="87.86" y1="239.4" x2="472.79" y2="342.55" gradientUnits="userSpaceOnUse"><stop offset="0" stop-color="#05c"/><stop offset="1" stop-color="#1b7fff"/></linearGradient><linearGradient id="linear-gradient-2" x1="655.44" y1="318.47" x2="1493.52" y2="318.47" gradientUnits="userSpaceOnUse"><stop offset="0" stop-color="#3d4e66"/><stop offset="1" stop-color="#3d4e66"/></linearGradient></defs><path class="cls-1" d="m325.59,442.89h-80.83c-9.53,0-21.22-6.75-25.98-15l-115.47-200c-14.29-24.75-2.6-45,25.98-45h80.83c9.53,0,21.22,6.75,25.98,15l66.4,115.01,49.07,84.99c14.29,24.75,2.6,45-25.98,45Zm150.12-260h-80.83c-9.53,0-21.22,6.75-25.98,15l-42.74,74.03c-4.76,8.25-4.76,21.75,0,30l40.41,69.99c14.29,24.75,37.67,24.75,51.96,0l83.16-144.02c14.29-24.75,2.6-45-25.98-45Z"/><g><text class="cls-5" transform="translate(650 390.47)"><tspan x="0" y="0">v</tspan><tspan class="cls-2" x="152" y="0">ı</tspan><tspan class="cls-3" x="234.23" y="0">c</tspan><tspan x="383.68" y="0">aro</tspan></text><g><path class="cls-4" d="m718.48,308.23c3.84,8.64,8.32,21.44,10.88,32.64,2.56-10.88,6.72-24,10.56-33.28l21.12-52.16c2.24-5.44,7.68-8.96,13.44-8.96h8.32c8,0,13.76,6.4,13.76,13.76,0,1.92-.64,3.52-1.28,5.44l-49.92,116.48c-2.24,5.44-7.68,8.96-13.44,8.96h-8c-5.76,0-11.2-3.52-13.76-8.96l-53.44-116.48c-.96-1.92-1.28-3.84-1.28-5.76,0-7.04,5.76-13.44,13.44-13.44h13.44c5.76,0,11.2,3.52,13.44,8.96l22.72,52.8Z"/><path class="cls-4" d="m852.88,246.47c6.4,0,11.84,5.44,11.84,11.84v120.32c0,6.4-5.44,11.84-11.84,11.84h-13.12c-6.4,0-11.84-5.44-11.84-11.84v-120.32c0-6.4,5.44-11.84,11.84-11.84h13.12Z"/><path class="cls-4" d="m1000.72,283.27c-8.64-4.16-16-5.76-25.6-5.76-20.48,0-40,15.68-40,40.96s19.84,41.28,41.6,41.28c11.52,0,19.52-2.88,27.84-8.32,2.56-1.6,5.12-2.56,7.68-2.56,3.84,0,7.36,1.6,9.92,4.8l5.44,6.72c1.6,1.6,2.24,4.16,2.24,6.4,0,3.84-1.6,8-4.48,10.24-17.28,13.76-32.64,16.96-50.56,16.96-47.68,0-79.04-30.08-79.04-75.52,0-41.92,30.72-75.52,74.56-75.52,19.2,0,33.28,3.2,47.36,10.88,3.52,1.92,5.76,6.4,5.76,10.56,0,1.92-.32,3.52-1.28,5.12l-4.8,8.32c-2.56,4.16-6.4,6.72-10.88,6.72-1.6,0-3.52-.32-5.76-1.28Z"/><path class="cls-4" d="m1183.76,255.43c4.8,2.24,8.64,8.64,8.64,13.76v109.44c0,6.4-5.44,11.84-11.84,11.84h-13.76c-6.08,0-11.2-5.12-11.2-11.52-9.6,8.96-23.68,15.04-39.68,15.04-43.2,0-70.72-30.4-70.72-75.52,0-41.92,33.92-75.52,82.56-75.52,20.48,0,40.96,5.44,56,12.48Zm-28.16,29.12c-8.64-4.16-17.92-7.04-28.16-7.04-28.16,0-42.88,19.84-42.88,42.56,0,25.28,15.68,39.68,38.08,39.68,13.12,0,25.6-7.04,32.96-15.04v-60.16Z"/><path class="cls-4" d="m1292.88,278.47c-12.16,0-18.88,7.04-23.04,15.36v84.8c0,6.4-5.44,11.84-11.84,11.84h-13.12c-6.4,0-11.84-5.44-11.84-11.84v-120.32c0-6.4,5.44-11.84,11.84-11.84h13.12c6.4,0,11.84,5.44,11.84,12.8,6.72-8,15.68-15.36,32.96-15.36,4.16,0,8.64.64,12.48,2.24,4.8,1.92,6.72,5.44,6.72,9.28,0,1.6-.32,3.2-.96,4.48l-4.8,10.24c-2.88,6.4-7.04,9.28-13.12,9.28-1.28,0-2.56,0-4.16-.32-1.6-.32-3.84-.64-6.08-.64Z"/><path class="cls-4" d="m1336.71,318.47c0-43.2,30.72-75.52,78.4-75.52s78.4,32.32,78.4,75.52-30.72,75.52-78.4,75.52-78.4-32.32-78.4-75.52Zm39.36,0c0,24,16.64,41.28,39.04,41.28s39.36-16.32,39.36-41.28-16.96-40.96-39.36-40.96-39.04,16-39.04,40.96Z"/></g></g></svg>