<?xml version="1.0" encoding="UTF-8"?><svg id="Layer_5" xmlns="http://www.w3.org/2000/svg" xmlns:xlink="http://www.w3.org/1999/xlink" viewBox="0 0 16 16"><defs><style>.cls-1{fill:url(#linear-gradient);}</style><linearGradient id="linear-gradient" x1=".67" y1="5.49" x2="13.79" y2="9.01" gradientUnits="userSpaceOnUse"><stop offset="0" stop-color="#5284cc"/><stop offset="1" stop-color="#99c6ff"/></linearGradient></defs><path class="cls-1" d="m8.79,12.5h-2.76c-.32,0-.72-.23-.89-.52L1.21,5.06c-.49-.86-.09-1.56.89-1.56h2.76c.32,0,.72.23.89.52l2.26,3.98,1.67,2.94c.49.86.09,1.56-.89,1.56ZM13.91,3.5h-2.76c-.32,0-.72.23-.89.52l-1.46,2.56c-.16.29-.16.75,0,1.04l1.38,2.42c.49.86,1.28.86,1.77,0l2.84-4.99c.49-.86.09-1.56-.89-1.56Z"/></svg>