<?xml version="1.0" encoding="UTF-8"?><svg id="Layer_4" xmlns="http://www.w3.org/2000/svg" xmlns:xlink="http://www.w3.org/1999/xlink" viewBox="0 0 600 600"><defs><style>.cls-1{fill:url(#linear-gradient);}</style><linearGradient id="linear-gradient" x1="87.86" y1="239.4" x2="472.79" y2="342.55" gradientUnits="userSpaceOnUse"><stop offset="0" stop-color="#05c"/><stop offset="1" stop-color="#1b7fff"/></linearGradient></defs><path class="cls-1" d="m325.59,442.89h-80.83c-9.53,0-21.22-6.75-25.98-15l-115.47-200c-14.29-24.75-2.6-45,25.98-45h80.83c9.53,0,21.22,6.75,25.98,15l66.4,115.01,49.07,84.99c14.29,24.75,2.6,45-25.98,45Zm150.12-260h-80.83c-9.53,0-21.22,6.75-25.98,15l-42.74,74.03c-4.76,8.25-4.76,21.75,0,30l40.41,69.99c14.29,24.75,37.67,24.75,51.96,0l83.16-144.02c14.29-24.75,2.6-45-25.98-45Z"/></svg>